#!OML:ASF X:\für Bonn\!DataBase\2005_08_12_Daniel\c3d\Daniel.ASF
:FULLY-SPECIFIED
:DEGREES
82
root -3.56759 5.94099 -1.24141 364.342 -87.9562 -393.265
lowerback 58.6811 -3.32253 3.15801
upperback 6.10421 -4.56228 -2.90624
thorax -15.1033 -2.77393 -2.21208
lowerneck 9.26017 1.40571 -0.89907
upperneck -8.42724 1.81207 0.524667
head -4.47836 0.891692 0.216216
rclavicle -9.54166e-015 -1.74931e-014
rhumerus 87.7616 -11.4367 -212.22
rradius 11.6604
rwrist 180.585
rhand -25.6893 14.1564
rfingers 7.12502
rthumb 0.84579 -15.8217
lclavicle -9.54166e-015 -1.74931e-014
lhumerus 69.7334 -7.04021 71.4295
lradius 14.5728
lwrist -46.2657
lhand -18.9883 0.900552
lfingers 7.12502
lthumb 7.31646 30.7541
rfemur 24.7299 -48.5837 -154.324
rtibia 162.274
rfoot -103.012 84.5012
rtoes -3.0884
lfemur 162.238 -75.6505 -40.4949
ltibia 202.055
lfoot 73.1744 -98.5535
ltoes 11.9681
83
root -3.55386 5.94168 -1.23777 365.306 -87.9238 -393.965
lowerback 58.5803 -3.39982 3.25039
upperback 6.12693 -4.59646 -2.92048
thorax -15.0757 -2.78946 -2.25398
lowerneck 9.17242 1.40745 -0.859373
upperneck -8.38688 1.81382 0.461458
head -4.44443 0.894731 0.188336
rclavicle 2.26615e-014 -3.18055e-015
rhumerus 87.6798 -11.5813 -211.842
rradius 11.6953
rwrist 180.461
rhand -25.6507 13.8612
rfingers 7.12502
rthumb 0.883065 -16.1167
lclavicle 2.26615e-014 -3.18055e-015
lhumerus 69.4092 -6.83997 72.4569
lradius 14.4511
lwrist -46.6225
lhand -19.3249 0.846305
lfingers 7.12502
lthumb 6.99154 30.7108
rfemur 25.2809 -48.5883 -154.776
rtibia 162.427
rfoot -99.443 84.3066
rtoes -3.21685
lfemur 160.996 -76.0466 -39.325
ltibia 201.953
lfoot 70.2764 -98.488
ltoes 11.6826
84
root -3.53802 5.96485 -1.23405 365.693 -87.8829 -394.077
lowerback 58.4959 -3.47933 3.34794
upperback 6.15931 -4.63467 -2.95054
thorax -15.0396 -2.80698 -2.31424
lowerneck 9.20651 1.39507 -0.795329
upperneck -8.48612 1.79961 0.405255
head -4.48589 0.888191 0.158218
rclavicle 9.14409e-015 -2.14687e-014
rhumerus 87.4752 -11.7715 -210.615
rradius 11.682
rwrist 179.574
rhand -25.628 13.5726
rfingers 7.12502
rthumb 0.905049 -16.4052
lclavicle 9.14409e-015 -2.14687e-014
lhumerus 69.1058 -6.64909 73.4893
lradius 14.3338
lwrist -46.9709
lhand -19.5793 0.677293
lfingers 7.12502
lthumb 6.74592 30.5498
rfemur 26.2055 -48.6105 -155.032
rtibia 162.411
rfoot -92.8063 83.8663
rtoes -3.45254
lfemur 199.88 103.539 -39.0436
ltibia 157.992
lfoot 65.3509 -81.6363
ltoes 11.4947
85
root -3.51908 6.00898 -1.23032 366.08 -87.8548 -394.191
lowerback 58.499 -3.5529 3.41176
upperback 6.13982 -4.67999 -2.9684
thorax -15.0694 -2.82532 -2.33962
lowerneck 9.31893 1.40768 -0.767549
upperneck -8.57566 1.81342 0.344933
head -4.54058 0.896992 0.130669
rclavicle 1.15295e-014 -3.97569e-015
rhumerus 87.1667 -12.1066 -208.67
rradius 11.5773
rwrist 178.037
rhand -25.6227 13.3013
rfingers 7.12502
rthumb 0.910108 -16.6765
lclavicle 1.15295e-014 -3.97569e-015
lhumerus 68.8414 -6.68309 73.431
lradius 14.2566
lwrist -46.3884
lhand -19.7188 0.706114
lfingers 7.12502
lthumb 6.61128 30.5829
rfemur 27.4716 -48.7076 -155.036
rtibia 162.226
rfoot -84.4478 83.216
rtoes -3.63431
lfemur 200.354 103.134 -39.5977
ltibia 157.806
lfoot 58.0274 -81.7488
ltoes 11.204
86
root -3.49774 6.07381 -1.22537 366.81 -87.8192 -394.64
lowerback 58.5555 -3.63584 3.49635
upperback 6.10298 -4.71905 -2.97227
thorax -15.1217 -2.84188 -2.36024
lowerneck 9.47399 1.41501 -0.776808
upperneck -8.71208 1.817 0.307543
head -4.62203 0.900687 0.117664
rclavicle -3.18055e-015 6.36111e-015
rhumerus 86.7824 -12.4744 -206.171
rradius 11.3656
rwrist 175.84
rhand -25.555 13.1226
rfingers 7.12502
rthumb 0.97558 -16.8549
lclavicle -3.18055e-015 6.36111e-015
lhumerus 68.6772 -6.9195 72.5446
lradius 14.1759
lwrist -45.1507
lhand -19.7072 0.830038
lfingers 7.12502
lthumb 6.62245 30.7065
rfemur 29.0914 -48.8986 -154.826
rtibia 161.886
rfoot -76.0565 82.0026
rtoes -3.98189
lfemur 200.187 102.656 -41.1814
ltibia 157.487
lfoot 48.9629 -81.671
ltoes 10.9635
87
root -3.47273 6.15376 -1.22011 367.177 -87.7818 -394.717
lowerback 58.6614 -3.73263 3.60043
upperback 6.04304 -4.76489 -3.00406
thorax -15.209 -2.86058 -2.41664
lowerneck 9.63228 1.41372 -0.743603
upperneck -9.22262 1.81549 0.271115
head -4.34458 0.899505 0.08617
rclavicle 4.77083e-015 -1.74931e-014
rhumerus 86.4299 -12.857 -203.958
rradius 11.2381
rwrist 173.852
rhand -25.6111 12.9943
rfingers 7.12502
rthumb 0.921362 -16.9835
lclavicle 4.77083e-015 -1.74931e-014
lhumerus 68.4764 -7.09477 71.9825
lradius 14.1064
lwrist -44.53
lhand -19.5451 0.901561
lfingers 7.12502
lthumb 6.77893 30.773
rfemur 30.9583 -49.2305 -154.457
rtibia 161.412
rfoot -68.4257 80.5329
rtoes -4.2817
lfemur 199.319 102.092 -43.8012
ltibia 157.061
lfoot 38.7119 -81.2852
ltoes 10.7265
88
root -3.44504 6.24632 -1.21522 367.748 -87.7587 -394.989
lowerback 58.7963 -3.81046 3.6729
upperback 5.9692 -4.80153 -3.00834
thorax -15.3101 -2.87496 -2.43147
lowerneck 9.84455 1.42242 -0.774367
upperneck -9.42081 1.81767 0.239006
head -4.44062 0.903049 0.078706
rclavicle 3.97569e-016 -2.06736e-014
rhumerus 86.3314 -13.1975 -203.158
rradius 11.1168
rwrist 173.027
rhand -25.7503 12.9732
rfingers 7.12502
rthumb 0.786951 -17.0051
lclavicle 3.97569e-016 -2.06736e-014
lhumerus 68.1182 -6.89471 72.6628
lradius 14.0147
lwrist -45.509
lhand -19.3255 0.851337
lfingers 7.12502
lthumb 6.99095 30.7159
rfemur 33.0206 -49.6816 -153.969
rtibia 160.844
rfoot -62.658 78.6696
rtoes -4.69878
lfemur 197.496 101.433 -47.5872
ltibia 156.55
lfoot 28.7268 -80.541
ltoes 10.4128
89
root -3.4145 6.34912 -1.21003 368.15 -87.7359 -395.096
lowerback 58.969 -3.89434 3.75691
upperback 5.87461 -4.83782 -3.02557
thorax -15.4402 -2.88873 -2.46532
lowerneck 9.9955 1.42819 -0.758598
upperneck -9.55145 1.82243 0.201826
head -4.50535 0.906746 0.0626854
rclavicle -3.89618e-014 -2.46493e-014
rhumerus 86.5061 -13.5117 -203.69
rradius 11.0721
rwrist 173.386
rhand -25.9621 12.9585
rfingers 7.12502
rthumb 0.582329 -17.0205
lclavicle -3.89618e-014 -2.46493e-014
lhumerus 67.6969 -6.52573 73.9779
lradius 13.8778
lwrist -47.3524
lhand -19.1143 0.663826
lfingers 7.12502
lthumb 7.19482 30.5215
rfemur 35.1446 -50.3235 -153.362
rtibia 160.181
rfoot -57.7963 76.7352
rtoes -5.09019
lfemur 194.493 100.725 -52.7132
ltibia 155.959
lfoot 20.2533 -79.4054
ltoes 10.0879
90
root -3.38264 6.46206 -1.20461 368.74 -87.715 -395.38
lowerback 59.1444 -3.97116 3.84255
upperback 5.77177 -4.85965 -3.0259
thorax -15.5773 -2.89663 -2.48767
lowerneck 10.0495 1.42599 -0.742897
upperneck -9.62045 1.81297 0.129488
head -4.53467 0.905779 0.0377907
rclavicle -1.55052e-014 2.06736e-014
rhumerus 86.8638 -13.7763 -205.058
rradius 11.0777
rwrist 174.425
rhand -26.2549 13.0734
rfingers 7.12502
rthumb 0.299541 -16.9061
lclavicle -1.55052e-014 2.06736e-014
lhumerus 67.2919 -6.18903 75.0911
lradius 13.7647
lwrist -49.1133
lhand -19.0554 0.49399
lfingers 7.12502
lthumb 7.25167 30.3497
rfemur 37.2915 -51.0934 -152.616
rtibia 159.425
rfoot -54.1737 74.6383
rtoes -5.54147
lfemur 190.274 100.04 -59.1819
ltibia 155.298
lfoot 13.0088 -78.0077
ltoes 9.7743
91
root -3.34916 6.58309 -1.19947 369.153 -87.6988 -395.49
lowerback 59.3138 -4.04452 3.91509
upperback 5.67728 -4.88758 -3.03139
thorax -15.7048 -2.90694 -2.50723
lowerneck 10.0006 1.43004 -0.733562
upperneck -9.60482 1.81591 0.0928966
head -4.52132 0.909145 0.0252507
rclavicle 1.35174e-014 -1.43125e-014
rhumerus 87.1779 -14.0269 -206.17
rradius 11.0169
rwrist 175.2
rhand -26.5181 13.1378
rfingers 7.12502
rthumb 0.0453568 -16.842
lclavicle 1.35174e-014 -1.43125e-014
lhumerus 66.96 -6.07457 75.3347
lradius 13.6725
lwrist -50.084
lhand -19.2375 0.46252
lfingers 7.12502
lthumb 7.07585 30.3242
rfemur 39.3185 -52.0267 -151.74
rtibia 158.585
rfoot -50.8478 72.6658
rtoes -5.94569
lfemur 184.326 99.4194 -67.4605
ltibia 154.578
lfoot 7.21354 -76.4003
ltoes 9.30733
